{
  "accessors": [
    {
      "bufferView": 0,
      "componentType": 5125,
      "count": 50160,
      "type": "SCALAR"
    },
    {
      "bufferView": 1,
      "componentType": 5126,
      "count": 9956,
      "max": [
        0.05129785052873992,
        0.049537323925970586,
        0.016055244284408424
      ],
      "min": [
        -0.05129785052873992,
        -0.049537323925970614,
        -0.016055244284408424
      ],
      "type": "VEC3"
    },
    {
      "bufferView": 2,
      "componentType": 5126,
      "count": 9956,
      "max": [
        0.9999999994564358,
        0.9999999646420573,
        0.9999998906169544
      ],
      "min": [
        -0.9999999994456277,
        -0.9999999790295266,
        -0.9999998906169544
      ],
      "type": "VEC3"
    },
    {
      "bufferView": 3,
      "componentType": 5126,
      "count": 9956,
      "max": [
        0.9741744300294193,
        1.0
      ],
      "min": [
        0.0,
        0.0
      ],
      "type": "VEC2"
    }
  ],
  "asset": {
    "generator": "Adobe Illustrator",
    "version": "2.0"
  },
  "bufferViews": [
    {
      "buffer": 0,
      "byteLength": 200640,
      "target": 34963
    },
    {
      "buffer": 0,
      "byteLength": 119472,
      "byteOffset": 200640,
      "target": 34962
    },
    {
      "buffer": 0,
      "byteLength": 119472,
      "byteOffset": 320112,
      "target": 34962
    },
    {
      "buffer": 0,
      "byteLength": 79648,
      "byteOffset": 439584,
      "target": 34962
    }
  ],
  "buffers": [
    {
      "byteLength": 519232,
      "uri": "data:application/octet-stream;base64,"
    }
  ],
  "materials": [
    {
      "doubleSided": true,
      "pbrMetallicRoughness": {
        "baseColorFactor": [
          0.890625,
          0.890625,
          0.890625,
          1.0
        ],
        "metallicFactor": 0.0,
        "roughnessFactor": 0.4000000059604645
      }
    }
  ],
  "meshes": [
    {
      "primitives": [
        {
          "attributes": {
            "NORMAL": 2,
            "POSITION": 1,
            "TEXCOORD_0": 3
          },
          "indices": 0,
          "material": 0,
          "mode": 4
        }
      ]
    }
  ],
  "nodes": [
    {
      "mesh": 0
    }
  ],
  "scenes": [
    {
      "nodes": [
        0
      ]
    }
  ]
}
