{
  "accessors": [
    {
      "bufferView": 0,
      "componentType": 5125,
      "count": 48588,
      "type": "SCALAR"
    },
    {
      "bufferView": 1,
      "componentType": 5126,
      "count": 9494,
      "max": [
        0.056052211760810766,
        0.05844498075340071,
        0.0359220052701497
      ],
      "min": [
        -0.056052211760810655,
        -0.058444980753400766,
        -0.0359220052701497
      ],
      "type": "VEC3"
    },
    {
      "bufferView": 2,
      "componentType": 5126,
      "count": 9494,
      "max": [
        0.9999996747554868,
        0.9999996510851034,
        0.9999469261755133
      ],
      "min": [
        -0.9999991839186907,
        -0.9999970880927271,
        -0.9999469261755133
      ],
      "type": "VEC3"
    },
    {
      "bufferView": 3,
      "componentType": 5126,
      "count": 9494,
      "max": [
        1.0,
        0.5590294438846523
      ],
      "min": [
        0.0,
        0.0
      ],
      "type": "VEC2"
    }
  ],
  "asset": {
    "generator": "Adobe Illustrator",
    "version": "2.0"
  },
  "bufferViews": [
    {
      "buffer": 0,
      "byteLength": 194352,
      "target": 34963
    },
    {
      "buffer": 0,
      "byteLength": 113928,
      "byteOffset": 194352,
      "target": 34962
    },
    {
      "buffer": 0,
      "byteLength": 113928,
      "byteOffset": 308280,
      "target": 34962
    },
    {
      "buffer": 0,
      "byteLength": 75952,
      "byteOffset": 422208,
      "target": 34962
    }
  ],
  "buffers": [
    {
      "byteLength": 498160,
      "uri": "data:application/octet-stream;base64,"
    }
  ],
  "materials": [
    {
      "doubleSided": true,
      "pbrMetallicRoughness": {
        "baseColorFactor": [
          0.890625,
          0.890625,
          0.890625,
          1.0
        ],
        "metallicFactor": 0.0,
        "roughnessFactor": 0.4000000059604645
      }
    }
  ],
  "meshes": [
    {
      "primitives": [
        {
          "attributes": {
            "NORMAL": 2,
            "POSITION": 1,
            "TEXCOORD_0": 3
          },
          "indices": 0,
          "material": 0,
          "mode": 4
        }
      ]
    }
  ],
  "nodes": [
    {
      "mesh": 0
    }
  ],
  "scenes": [
    {
      "nodes": [
        0
      ]
    }
  ]
}
