<?xml version="1.0" encoding="UTF-8"?>
<svg id="Layer_2" data-name="Layer 2" xmlns="http://www.w3.org/2000/svg" viewBox="0 0 32.31 31.94">
  <defs>
    <style>
      .cls-1 {
        stroke: #fff;
        stroke-miterlimit: 10;
        stroke-width: .31px;
      }

      .cls-2 {
        fill: #fff;
      }
    </style>
  </defs>
  <g id="Layer_1-2" data-name="Layer 1">
    <g>
      <g>
        <g id="_Radial_Repeat_" data-name="&amp;lt;Radial Repeat&amp;gt;">
          <path class="cls-1" d="M19.41,28.77c0-2.39-1.14-6.27-2.07-9.03-.41-1.21-1.95-1.21-2.36,0-.93,2.77-2.07,6.65-2.07,9.03,0,4.01,6.5,4.03,6.5,0Z"/>
        </g>
        <g id="_Radial_Repeat_-2" data-name="&amp;lt;Radial Repeat&amp;gt;">
          <path class="cls-1" d="M10.18,27.78c1.53-1.83,3.15-5.53,4.22-8.25.47-1.19-.72-2.18-1.8-1.51-2.49,1.52-5.86,3.76-7.39,5.58-2.58,3.07,2.39,7.26,4.98,4.18Z"/>
        </g>
        <g id="_Radial_Repeat_-3" data-name="&amp;lt;Radial Repeat&amp;gt;">
          <path class="cls-1" d="M3.75,21.09c2.35-.41,5.97-2.21,8.53-3.61,1.12-.61.85-2.13-.41-2.32-2.89-.44-6.91-.89-9.25-.47-3.95.7-2.84,7.1,1.13,6.4Z"/>
        </g>
        <g id="_Radial_Repeat_-4" data-name="&amp;lt;Radial Repeat&amp;gt;">
          <path class="cls-1" d="M3.12,11.83c2.07,1.19,6,2.14,8.86,2.72,1.25.25,2.02-1.08,1.18-2.04-1.93-2.19-4.72-5.12-6.78-6.31-3.47-2.01-6.74,3.62-3.25,5.63Z"/>
        </g>
        <g id="_Radial_Repeat_-5" data-name="&amp;lt;Radial Repeat&amp;gt;">
          <path class="cls-1" d="M8.6,4.33c.82,2.24,3.22,5.5,5.04,7.78.8,1,2.24.47,2.21-.81-.07-2.92-.33-6.96-1.14-9.19-1.37-3.77-7.49-1.56-6.11,2.22Z"/>
        </g>
        <g id="_Radial_Repeat_-6" data-name="&amp;lt;Radial Repeat&amp;gt;">
          <path class="cls-1" d="M17.61,2.11c-.82,2.24-1.07,6.28-1.14,9.19-.03,1.27,1.42,1.8,2.21.81,1.82-2.28,4.22-5.54,5.04-7.78,1.37-3.77-4.73-6.01-6.11-2.22Z"/>
        </g>
        <g id="_Radial_Repeat_-7" data-name="&amp;lt;Radial Repeat&amp;gt;">
          <path class="cls-1" d="M25.94,6.2c-2.07,1.19-4.85,4.12-6.78,6.31-.84.96-.07,2.29,1.18,2.04,2.86-.58,6.8-1.53,8.86-2.72,3.47-2.01.24-7.64-3.25-5.63Z"/>
        </g>
        <g id="_Radial_Repeat_-8" data-name="&amp;lt;Radial Repeat&amp;gt;">
          <path class="cls-1" d="M29.69,14.69c-2.35-.41-6.37.04-9.25.47-1.26.19-1.53,1.71-.41,2.32,2.56,1.4,6.19,3.2,8.53,3.61,3.95.7,5.09-5.7,1.13-6.4Z"/>
        </g>
        <g id="_Radial_Repeat_-9" data-name="&amp;lt;Radial Repeat&amp;gt;">
          <path class="cls-1" d="M27.11,23.6c-1.53-1.83-4.9-4.07-7.39-5.58-1.09-.66-2.27.33-1.8,1.51,1.07,2.72,2.69,6.43,4.22,8.25,2.58,3.07,7.57-1.09,4.98-4.18Z"/>
        </g>
      </g>
      <g>
        <path d="M16.16,19.82c-2.33,0-4.22-1.89-4.22-4.22s1.9-4.22,4.22-4.22,4.22,1.89,4.22,4.22-1.89,4.22-4.22,4.22Z"/>
        <path class="cls-2" d="M16.16,11.77c2.12,0,3.83,1.72,3.83,3.83s-1.72,3.83-3.83,3.83-3.83-1.72-3.83-3.83,1.72-3.83,3.83-3.83M16.16,10.99c-2.54,0-4.61,2.07-4.61,4.61s2.07,4.61,4.61,4.61,4.61-2.07,4.61-4.61-2.07-4.61-4.61-4.61h0Z"/>
      </g>
    </g>
  </g>
</svg>