{
  "accessors": [
    {
      "bufferView": 0,
      "componentType": 5125,
      "count": 70020,
      "type": "SCALAR"
    },
    {
      "bufferView": 1,
      "componentType": 5126,
      "count": 15052,
      "max": [
        0.04107568558577368,
        0.040601582557942856,
        0.01619097789957038
      ],
      "min": [
        -0.04107568558577357,
        -0.040601582557942856,
        -0.01619097789957038
      ],
      "type": "VEC3"
    },
    {
      "bufferView": 2,
      "componentType": 5126,
      "count": 15052,
      "max": [
        0.9999987496978747,
        0.9999999914813971,
        0.9999884713068071
      ],
      "min": [
        -0.9999987838957178,
        -0.9999999998598152,
        -0.9999884713068071
      ],
      "type": "VEC3"
    },
    {
      "bufferView": 3,
      "componentType": 5126,
      "count": 15052,
      "max": [
        0.9846770920345748,
        1.0
      ],
      "min": [
        0.0,
        0.0
      ],
      "type": "VEC2"
    }
  ],
  "asset": {
    "generator": "Adobe Illustrator",
    "version": "2.0"
  },
  "bufferViews": [
    {
      "buffer": 0,
      "byteLength": 280080,
      "target": 34963
    },
    {
      "buffer": 0,
      "byteLength": 180624,
      "byteOffset": 280080,
      "target": 34962
    },
    {
      "buffer": 0,
      "byteLength": 180624,
      "byteOffset": 460704,
      "target": 34962
    },
    {
      "buffer": 0,
      "byteLength": 120416,
      "byteOffset": 641328,
      "target": 34962
    }
  ],
  "buffers": [
    {
      "byteLength": 761744,
      "uri": "data:application/octet-stream;base64,"
    }
  ],
  "materials": [
    {
      "doubleSided": true,
      "pbrMetallicRoughness": {
        "baseColorFactor": [
          0.890625,
          0.890625,
          0.890625,
          1.0
        ],
        "metallicFactor": 0.650407612323761,
        "roughnessFactor": 0.253091037273407
      }
    }
  ],
  "meshes": [
    {
      "primitives": [
        {
          "attributes": {
            "NORMAL": 2,
            "POSITION": 1,
            "TEXCOORD_0": 3
          },
          "indices": 0,
          "material": 0,
          "mode": 4
        }
      ]
    }
  ],
  "nodes": [
    {
      "mesh": 0
    }
  ],
  "scenes": [
    {
      "nodes": [
        0
      ]
    }
  ]
}
