{
	"asset":{
		"generator":"Khronos glTF Blender I/O v4.2.60",
		"version":"2.0"
	},
	"scene":0,
	"scenes":[
		{
			"name":"Scene",
			"nodes":[
				0
			]
		}
	],
	"nodes":[
		{
			"mesh":0,
			"name":"Object_14",
			"rotation":[
				-0.0990457758307457,
				0.23911766707897186,
				-0.3696438670158386,
				0.8923990726470947
			],
			"scale":[
				0.028049729764461517,
				0.028049729764461517,
				0.028049729764461517
			]
		}
	],
	"meshes":[
		{
			"name":"Object_1",
			"primitives":[
				{
					"attributes":{
						"POSITION":0,
						"NORMAL":1,
						"TEXCOORD_0":2,
						"TEXCOORD_1":3,
						"TEXCOORD_2":4,
						"TEXCOORD_3":5,
						"TEXCOORD_4":6,
						"TEXCOORD_5":7,
						"TEXCOORD_6":8,
						"TEXCOORD_7":9
					},
					"indices":10
				}
			]
		}
	],
	"accessors":[
		{
			"bufferView":0,
			"componentType":5126,
			"count":115964,
			"max":[
				12.690764427185059,
				5.490050792694092,
				9.041397094726562
			],
			"min":[
				-14.567554473876953,
				-4.374470233917236,
				-9.244880676269531
			],
			"type":"VEC3"
		},
		{
			"bufferView":1,
			"componentType":5126,
			"count":115964,
			"type":"VEC3"
		},
		{
			"bufferView":2,
			"componentType":5126,
			"count":115964,
			"type":"VEC2"
		},
		{
			"bufferView":3,
			"componentType":5126,
			"count":115964,
			"type":"VEC2"
		},
		{
			"bufferView":4,
			"componentType":5126,
			"count":115964,
			"type":"VEC2"
		},
		{
			"bufferView":5,
			"componentType":5126,
			"count":115964,
			"type":"VEC2"
		},
		{
			"bufferView":6,
			"componentType":5126,
			"count":115964,
			"type":"VEC2"
		},
		{
			"bufferView":7,
			"componentType":5126,
			"count":115964,
			"type":"VEC2"
		},
		{
			"bufferView":8,
			"componentType":5126,
			"count":115964,
			"type":"VEC2"
		},
		{
			"bufferView":9,
			"componentType":5126,
			"count":115964,
			"type":"VEC2"
		},
		{
			"bufferView":10,
			"componentType":5125,
			"count":493503,
			"type":"SCALAR"
		}
	],
	"bufferViews":[
		{
			"buffer":0,
			"byteLength":1391568,
			"byteOffset":0,
			"target":34962
		},
		{
			"buffer":0,
			"byteLength":1391568,
			"byteOffset":1391568,
			"target":34962
		},
		{
			"buffer":0,
			"byteLength":927712,
			"byteOffset":2783136,
			"target":34962
		},
		{
			"buffer":0,
			"byteLength":927712,
			"byteOffset":3710848,
			"target":34962
		},
		{
			"buffer":0,
			"byteLength":927712,
			"byteOffset":4638560,
			"target":34962
		},
		{
			"buffer":0,
			"byteLength":927712,
			"byteOffset":5566272,
			"target":34962
		},
		{
			"buffer":0,
			"byteLength":927712,
			"byteOffset":6493984,
			"target":34962
		},
		{
			"buffer":0,
			"byteLength":927712,
			"byteOffset":7421696,
			"target":34962
		},
		{
			"buffer":0,
			"byteLength":927712,
			"byteOffset":8349408,
			"target":34962
		},
		{
			"buffer":0,
			"byteLength":927712,
			"byteOffset":9277120,
			"target":34962
		},
		{
			"buffer":0,
			"byteLength":1974012,
			"byteOffset":10204832,
			"target":34963
		}
	],
	"buffers":[
		{
			"byteLength":12178844,
			"uri":"VisionPro1.bin"
		}
	]
}
