{
  "accessors": [
    {
      "bufferView": 0,
      "componentType": 5125,
      "count": 44604,
      "type": "SCALAR"
    },
    {
      "bufferView": 1,
      "componentType": 5126,
      "count": 8540,
      "max": [
        0.049500200521069515,
        0.047369867740054146,
        0.016308033184026596
      ],
      "min": [
        -0.049500200521069404,
        -0.04736986774005414,
        -0.0163080331840266
      ],
      "type": "VEC3"
    },
    {
      "bufferView": 2,
      "componentType": 5126,
      "count": 8540,
      "max": [
        0.9999995037426007,
        0.9999979134564593,
        0.9999999610094588
      ],
      "min": [
        -0.9999917073762814,
        -0.9999992934171322,
        -0.9999999610094588
      ],
      "type": "VEC3"
    },
    {
      "bufferView": 3,
      "componentType": 5126,
      "count": 8540,
      "max": [
        0.964761044097186,
        1.0
      ],
      "min": [
        0.0,
        0.0
      ],
      "type": "VEC2"
    }
  ],
  "asset": {
    "generator": "Adobe Illustrator",
    "version": "2.0"
  },
  "bufferViews": [
    {
      "buffer": 0,
      "byteLength": 178416,
      "target": 34963
    },
    {
      "buffer": 0,
      "byteLength": 102480,
      "byteOffset": 178416,
      "target": 34962
    },
    {
      "buffer": 0,
      "byteLength": 102480,
      "byteOffset": 280896,
      "target": 34962
    },
    {
      "buffer": 0,
      "byteLength": 68320,
      "byteOffset": 383376,
      "target": 34962
    }
  ],
  "buffers": [
    {
      "byteLength": 451696,
      "uri": "data:application/octet-stream;base64,"
    }
  ],
  "materials": [
    {
      "doubleSided": true,
      "pbrMetallicRoughness": {
        "baseColorFactor": [
          0.890625,
          0.890625,
          0.890625,
          1.0
        ],
        "metallicFactor": 0.0,
        "roughnessFactor": 0.4000000059604645
      }
    }
  ],
  "meshes": [
    {
      "primitives": [
        {
          "attributes": {
            "NORMAL": 2,
            "POSITION": 1,
            "TEXCOORD_0": 3
          },
          "indices": 0,
          "material": 0,
          "mode": 4
        }
      ]
    }
  ],
  "nodes": [
    {
      "mesh": 0
    }
  ],
  "scenes": [
    {
      "nodes": [
        0
      ]
    }
  ]
}
